<?xml version="1.0" standalone="no"?>
<!DOCTYPE svg PUBLIC "-//W3C//DTD SVG 20010904//EN"
 "http://www.w3.org/TR/2001/REC-SVG-20010904/DTD/svg10.dtd">
<svg version="1.0" xmlns="http://www.w3.org/2000/svg"
 width="512.000000pt" height="512.000000pt" viewBox="0 0 512.000000 512.000000"
 preserveAspectRatio="xMidYMid meet">
<metadata>
Created by potrace 1.14, written by Peter Selinger 2001-2017
</metadata>
<g transform="translate(0.000000,512.000000) scale(0.100000,-0.100000)"
fill="#000000" stroke="none">
<path d="M2447 4604 c-1 -1 -37 -5 -80 -9 -43 -3 -86 -8 -95 -10 -9 -1 -37 -6
-62 -10 -25 -3 -95 -19 -156 -35 -905 -232 -1537 -1044 -1537 -1975 0 -704
344 -1337 937 -1724 132 -86 403 -212 511 -238 6 -1 54 -14 108 -27 54 -14
119 -28 145 -32 26 -3 55 -8 65 -10 44 -8 191 -18 277 -18 149 0 287 15 430
46 527 113 986 429 1282 883 156 239 252 483 303 770 36 208 38 467 5 665 -5
30 -11 67 -14 81 -2 14 -16 69 -30 122 -152 571 -544 1050 -1074 1311 -285
140 -566 206 -895 210 -65 1 -119 1 -120 0z"/>
</g>
</svg>
