<?xml version="1.0" standalone="no"?>
<!DOCTYPE svg PUBLIC "-//W3C//DTD SVG 20010904//EN"
 "http://www.w3.org/TR/2001/REC-SVG-20010904/DTD/svg10.dtd">
<svg version="1.0" xmlns="http://www.w3.org/2000/svg"
 width="512.000000pt" height="512.000000pt" viewBox="0 0 512.000000 512.000000"
 preserveAspectRatio="xMidYMid meet">
<metadata>
Created by potrace 1.14, written by Peter Selinger 2001-2017
</metadata>
<g transform="translate(0.000000,512.000000) scale(0.100000,-0.100000)"
fill="#000000" stroke="none">
<path d="M1888 5075 c-2 -1 -41 -5 -88 -8 -101 -7 -183 -28 -265 -66 -104 -49
-151 -110 -162 -213 -6 -58 -7 -60 -32 -54 -14 3 -77 9 -138 12 -92 6 -120 4
-155 -10 -78 -30 -111 -71 -138 -169 l-17 -61 -80 -13 c-91 -14 -195 -50 -248
-86 -48 -32 -101 -103 -114 -152 -27 -98 -6 -231 60 -372 41 -91 41 -92 -26
-107 -16 -4 -77 -30 -134 -58 -295 -145 -364 -357 -194 -591 21 -29 49 -63 63
-77 66 -66 65 -61 29 -126 -105 -189 -183 -374 -225 -534 -26 -98 -25 -271 2
-330 45 -98 118 -150 235 -170 35 -5 67 -10 71 -10 4 0 5 -6 3 -12 -17 -50
-30 -229 -30 -423 0 -154 3 -194 21 -290 27 -155 105 -274 199 -305 96 -32
241 9 396 111 49 32 89 55 89 51 1 -4 1 -56 1 -117 1 -222 41 -385 120 -492
146 -197 424 -118 828 235 29 26 57 48 61 50 3 1 11 -21 17 -50 20 -95 23
-108 48 -174 81 -216 204 -353 355 -398 29 -9 86 -16 126 -16 233 0 416 191
504 526 11 43 20 86 20 96 0 20 15 24 25 7 6 -8 103 -90 209 -176 45 -36 189
-126 241 -150 346 -158 541 37 544 545 0 61 0 115 1 118 0 3 23 -10 50 -30 28
-20 52 -36 54 -36 2 0 30 -16 62 -35 119 -72 253 -95 336 -57 103 46 163 159
195 367 9 63 10 400 1 480 -19 156 -20 175 -12 176 218 20 315 115 318 309 1
79 -9 183 -19 200 -2 3 -6 17 -9 31 -16 90 -111 313 -203 482 -24 42 -43 79
-43 81 0 2 15 19 33 38 319 322 217 599 -285 771 -15 5 -13 15 21 89 122 264
85 463 -105 553 -60 28 -146 53 -219 61 -63 8 -61 7 -70 51 -17 96 -66 160
-143 189 -34 14 -64 16 -155 10 -61 -3 -124 -8 -138 -12 -25 -6 -26 -4 -31 53
-7 71 -25 109 -74 157 -34 33 -149 89 -204 100 -14 2 -45 9 -70 15 -44 10
-285 9 -325 -2 -11 -3 -49 -13 -85 -22 -96 -25 -233 -90 -338 -162 l-92 -63
-78 54 c-149 104 -315 173 -470 196 -114 16 -121 17 -124 15z"/>
</g>
</svg>
